HIERARCHY
ROOT Hips
{
	OFFSET 0.00000 0.00000 0.00000
	CHANNELS 6 Xposition Yposition Zposition Zrotation Yrotation Xrotation 
	JOINT LHipJoint
	{
		OFFSET 0 0 0
		CHANNELS 3 Zrotation Yrotation Xrotation
		JOINT LeftUpLeg
		{
			OFFSET 1.58161 -1.81893 0.78828
			CHANNELS 3 Zrotation Yrotation Xrotation
			JOINT LeftLeg
			{
				OFFSET 2.53374 -6.96141 0.00000
				CHANNELS 3 Zrotation Yrotation Xrotation
				JOINT LeftFoot
				{
					OFFSET 2.63509 -7.23986 0.00000
					CHANNELS 3 Zrotation Yrotation Xrotation
					JOINT LeftToeBase
					{
						OFFSET 0.14115 -0.38781 2.05350
						CHANNELS 3 Zrotation Yrotation Xrotation
						End Site
						{
							OFFSET 0.00000 -0.00000 1.05543
						}
					}
				}
			}
		}
	}
	JOINT RHipJoint
	{
		OFFSET 0 0 0
		CHANNELS 3 Zrotation Yrotation Xrotation
		JOINT RightUpLeg
		{
			OFFSET -1.11138 -1.81893 0.78828
			CHANNELS 3 Zrotation Yrotation Xrotation
			JOINT RightLeg
			{
				OFFSET -2.58392 -7.09926 0.00000
				CHANNELS 3 Zrotation Yrotation Xrotation
				JOINT RightFoot
				{
					OFFSET -2.66423 -7.31992 0.00000
					CHANNELS 3 Zrotation Yrotation Xrotation
					JOINT RightToeBase
					{
						OFFSET -0.18831 -0.51739 2.12114
						CHANNELS 3 Zrotation Yrotation Xrotation
						End Site
						{
							OFFSET -0.00000 -0.00000 1.09845
						}
					}
				}
			}
		}
	}
	JOINT LowerBack
	{
		OFFSET 0 0 0
		CHANNELS 3 Zrotation Yrotation Xrotation
		JOINT Spine
		{
			OFFSET -0.01511 1.97958 -0.08829
			CHANNELS 3 Zrotation Yrotation Xrotation
			JOINT Spine1
			{
				OFFSET 0.08344 1.97334 -0.04330
				CHANNELS 3 Zrotation Yrotation Xrotation
				JOINT Neck
				{
					OFFSET 0 0 0
					CHANNELS 3 Zrotation Yrotation Xrotation
					JOINT Neck1
					{
						OFFSET 0.00559 1.76246 0.31246
						CHANNELS 3 Zrotation Yrotation Xrotation
						JOINT Head
						{
							OFFSET -0.07011 1.80354 -0.30524
							CHANNELS 3 Zrotation Yrotation Xrotation
							End Site
							{
								OFFSET -0.02385 1.83547 -0.13906
							}
						}
					}
				}
				JOINT LeftShoulder
				{
					OFFSET 0 0 0
					CHANNELS 3 Zrotation Yrotation Xrotation
					JOINT LeftArm
					{
						OFFSET 3.20667 1.30156 -0.60240
						CHANNELS 3 Zrotation Yrotation Xrotation
						JOINT LeftForeArm
						{
							OFFSET 4.95663 -0.00000 0.00000
							CHANNELS 3 Zrotation Yrotation Xrotation
							JOINT LeftHand
							{
								OFFSET 3.38177 -0.00000 0.00000
								CHANNELS 3 Zrotation Yrotation Xrotation
								JOINT LeftFingerBase
								{
									OFFSET 0 0 0
									CHANNELS 3 Zrotation Yrotation Xrotation
									JOINT LeftHandIndex1
									{
										OFFSET 0.66291 -0.00000 0.00000
										CHANNELS 3 Zrotation Yrotation Xrotation
										End Site
										{
											OFFSET 0.53445 -0.00000 0.00000
										}
									}
								}
								JOINT LThumb
								{
									OFFSET 0 0 0
									CHANNELS 3 Zrotation Yrotation Xrotation
									End Site
									{
										OFFSET 0.54261 -0.00000 0.54261
									}
								}
							}
						}
					}
				}
				JOINT RightShoulder
				{
					OFFSET 0 0 0
					CHANNELS 3 Zrotation Yrotation Xrotation
					JOINT RightArm
					{
						OFFSET -3.06877 1.34672 -0.60964
						CHANNELS 3 Zrotation Yrotation Xrotation
						JOINT RightForeArm
						{
							OFFSET -5.08365 -0.00000 0.00000
							CHANNELS 3 Zrotation Yrotation Xrotation
							JOINT RightHand
							{
								OFFSET -3.35984 -0.00000 0.00000
								CHANNELS 3 Zrotation Yrotation Xrotation
								JOINT RightFingerBase
								{
									OFFSET 0 0 0
									CHANNELS 3 Zrotation Yrotation Xrotation
									JOINT RightHandIndex1
									{
										OFFSET -0.82076 -0.00000 0.00000
										CHANNELS 3 Zrotation Yrotation Xrotation
										End Site
										{
											OFFSET -0.66172 -0.00000 0.00000
										}
									}
								}
								JOINT RThumb
								{
									OFFSET 0 0 0
									CHANNELS 3 Zrotation Yrotation Xrotation
									End Site
									{
										OFFSET -0.67182 -0.00000 0.67182
									}
								}
							}
						}
					}
				}
			}
		}
	}
}
MOTION
Frames: 13
Frame Time: .0083333
-1.6551 16.9708 -2.3005 25.4360 25.4713 84.7574 0.0000 0.0000 0.0000 -7.3321 -16.3787 -53.0953 3.2593 11.1034 32.6295 0.4295 -2.8050 13.7259 0.3697 -3.9055 -10.8109 0.0000 0.0000 0.0000 -19.0899 3.6472 -101.9549 -5.8958 -14.3266 44.5619 0.7641 -16.7970 -13.8054 -1.9578 -8.7777 25.1024 5.1791 2.7032 13.6393 12.8135 4.1694 12.0647 10.6528 1.9246 4.7541 -0.0870 -9.4571 -14.0634 -6.2033 -12.5933 0.9903 -2.7814 -6.6024 2.3256 0.0000 -0.0000 0.0000 -89.3924 -16.9829 62.4130 80.2053 -59.6344 -51.5279 -0.0000 0.0000 -14.9578 14.8019 30.4954 7.6376 -7.1250 0.0000 -0.0000 -19.2557 60.2868 -7.3403 0.0000 -0.0000 0.0000 -25.6853 53.6452 -36.8809 -13.3459 21.7919 -2.5803 0.0000 0.0000 13.9809 -42.2779 12.4112 -11.0572 7.1250 -0.0000 -0.0000 -10.1375 -13.6005 -7.5916
-1.6632 16.9449 -2.2774 25.4747 25.2948 85.1172 0.0000 0.0000 0.0000 -7.5516 -16.2738 -53.1130 3.2719 11.1228 32.6950 0.4339 -2.9198 13.8561 0.3742 -3.9291 -10.8773 0.0000 0.0000 0.0000 -19.1840 3.5186 -102.5354 -5.9961 -14.4245 44.9659 0.7471 -16.6338 -13.7058 -1.8388 -8.5219 24.3107 5.1103 2.7602 13.5395 12.8355 4.2115 12.1791 10.7319 1.9341 4.9246 0.0932 -9.4522 -13.9391 -6.2508 -12.6581 0.5175 -2.7946 -6.6341 2.1247 0.0000 0.0000 0.0000 -89.3701 -16.9737 62.4370 81.4745 -59.7236 -52.6235 -0.0000 0.0000 -15.0988 15.0456 30.7462 7.8247 -7.1250 0.0000 -0.0000 -19.1881 60.5803 -7.4482 0.0000 0.0000 0.0000 -27.1700 53.5095 -38.8923 -13.1194 21.4619 -2.4968 0.0000 0.0000 15.2177 -42.1965 12.1597 -10.8116 7.1250 -0.0000 -0.0000 -10.1315 -13.9419 -7.5127
-1.6724 16.9195 -2.2538 25.4125 25.0815 85.3843 0.0000 0.0000 0.0000 -7.8102 -16.1100 -53.0871 3.2773 11.1309 32.7227 0.4281 -3.2781 13.9994 0.4331 -4.2234 -11.7061 0.0000 0.0000 0.0000 -19.3275 3.5107 -103.0594 -6.0896 -14.5146 45.3404 0.7282 -16.4814 -13.6844 -1.7816 -8.3955 23.9219 5.0089 2.8374 13.6590 12.8459 4.3067 12.2461 10.7898 1.9713 4.9123 0.0861 -9.4578 -13.8921 -6.1774 -12.6915 0.2343 -2.7530 -6.6482 2.0238 -0.0000 -0.0000 0.0000 -89.3458 -16.9532 62.4529 82.5925 -59.7916 -53.5894 -0.0000 0.0000 -15.2954 15.2409 30.9300 7.9720 -7.1250 0.0000 -0.0000 -19.1221 60.7999 -7.5216 -0.0000 -0.0000 0.0000 -28.4605 53.5259 -40.7419 -12.8703 21.0969 -2.4064 0.0000 0.0000 16.3751 -42.0457 12.0607 -10.6716 7.1250 -0.0000 -0.0000 -10.0510 -14.1015 -7.4165
-1.6772 16.8946 -2.2313 25.2954 24.9296 85.6049 0.0000 0.0000 0.0000 -7.9189 -16.0552 -53.0116 3.2805 11.1358 32.7392 0.4099 -3.4850 13.8806 0.5674 -4.8245 -13.4087 0.0000 0.0000 0.0000 -19.3688 3.5379 -103.5479 -6.1714 -14.5924 45.6657 0.6910 -16.2342 -13.8013 -1.7954 -8.4262 24.0162 5.0020 2.9463 13.7909 12.8756 4.4500 12.3177 10.8087 2.0368 4.8972 0.0242 -9.4984 -13.7475 -6.0303 -12.7756 -0.1644 -2.6682 -6.6835 1.8727 0.0000 0.0000 0.0000 -89.4299 -17.0179 62.5589 83.4275 -59.8361 -54.3112 -0.0000 0.0000 -15.4183 15.2729 31.2935 8.0726 -7.1250 0.0000 -0.0000 -19.3759 61.1489 -7.7870 0.0000 0.0000 0.0000 -29.6161 53.4141 -42.2193 -12.6400 20.7574 -2.3241 0.0000 0.0000 17.3970 -41.7067 11.6080 -10.1661 7.1250 -0.0000 -0.0000 -9.9109 -14.7535 -7.1701
-1.6861 16.8710 -2.2068 25.1592 24.8689 85.8152 0.0000 0.0000 0.0000 -8.0003 -15.8493 -52.9855 3.2793 11.1340 32.7331 0.4013 -3.8051 13.9756 0.6367 -5.1053 -14.2093 0.0000 0.0000 0.0000 -19.3096 3.6064 -104.0335 -6.2433 -14.6601 45.9506 0.6629 -16.0350 -13.8590 -1.7902 -8.4148 23.9812 5.0082 3.0814 13.8471 12.9415 4.6166 12.4285 10.8689 2.1111 4.9628 0.0883 -9.5141 -13.6624 -6.0205 -12.8448 -0.5819 -2.6507 -6.7169 1.7108 0.0000 0.0000 0.0000 -89.5917 -17.1459 62.6555 84.0912 -59.8677 -54.8851 -0.0000 0.0000 -15.3822 15.0311 31.2423 7.9289 -7.1250 0.0000 -0.0000 -19.5950 61.0421 -7.8291 0.0000 0.0000 0.0000 -30.7861 53.1960 -43.4939 -12.3756 20.3655 -2.2313 0.0000 0.0000 18.1926 -41.4229 11.0995 -9.6403 7.1250 -0.0000 -0.0000 -9.8140 -15.4614 -6.9467
-1.6828 16.8456 -2.1904 25.2461 24.8183 86.2638 0.0000 0.0000 0.0000 -7.9268 -16.1204 -53.1000 3.2790 11.1335 32.7315 0.4031 -3.7900 13.9901 0.6387 -5.1129 -14.2308 0.0000 0.0000 0.0000 -19.3351 3.3838 -104.5315 -6.2984 -14.7114 46.1679 0.6513 -15.9183 -13.7935 -1.7241 -8.2660 23.5250 5.1478 3.1117 13.6379 12.9783 4.6344 12.4855 10.8507 2.1212 5.1477 0.2034 -9.4864 -13.6331 -6.0442 -12.8568 -0.9390 -2.6570 -6.7237 1.5767 -0.0000 -0.0000 0.0000 -89.7126 -17.2714 62.7465 84.7365 -59.8951 -55.4433 -0.0000 0.0000 -15.4221 14.8290 30.7012 7.6982 -7.1250 0.0000 -0.0000 -19.3851 60.4864 -7.4845 -0.0000 -0.0000 0.0000 -31.9300 53.0049 -44.5774 -12.1069 19.9647 -2.1386 0.0000 0.0000 18.7773 -41.2538 10.7649 -9.3038 7.1250 -0.0000 -0.0000 -9.7604 -15.9219 -6.8092
-1.6849 16.8251 -2.1741 25.2592 24.6671 86.5589 0.0000 0.0000 0.0000 -7.9000 -16.3684 -53.1039 3.2821 11.1382 32.7474 0.4233 -3.5480 14.1083 0.5107 -4.5806 -12.7161 0.0000 0.0000 0.0000 -19.5219 3.3050 -104.8927 -6.3408 -14.7506 46.3345 0.6557 -15.9214 -13.7075 -1.6132 -8.0091 22.7416 5.0988 3.1622 13.6440 12.9910 4.6870 12.5538 10.8945 2.1396 5.2088 0.2990 -9.4528 -13.4652 -5.9384 -12.8689 -1.4145 -2.6032 -6.7240 1.3891 -0.0000 -0.0000 0.0000 -89.7387 -17.4142 62.8291 85.4362 -59.9212 -56.0487 -0.0000 0.0000 -15.6114 15.0061 30.3023 7.7028 -7.1250 0.0000 -0.0000 -18.8919 60.1531 -7.1352 -0.0000 -0.0000 0.0000 -32.9545 52.8201 -45.4878 -11.9070 19.6650 -2.0709 0.0000 0.0000 19.1889 -40.8164 10.1427 -8.6481 7.1250 -0.0000 -0.0000 -9.5741 -16.7962 -6.4911
-1.6978 16.8115 -2.1510 24.8435 24.4827 86.5589 0.0000 0.0000 0.0000 -7.9444 -16.0926 -53.0799 3.2927 11.1545 32.8027 0.3752 -4.5142 14.1192 0.6752 -5.2542 -14.6349 0.0000 0.0000 0.0000 -19.6745 3.7061 -105.2611 -6.3698 -14.7774 46.4485 0.6693 -15.9835 -13.5814 -1.5466 -7.8500 22.2593 4.8314 3.3311 13.8712 12.9821 4.8905 12.6633 11.0074 2.2188 5.1545 0.3834 -9.4077 -13.2583 -5.7912 -12.8569 -1.8298 -2.5343 -6.7106 1.2202 0.0000 0.0000 0.0000 -89.6867 -17.4856 62.7691 86.3531 -59.9497 -56.8422 -0.0000 0.0000 -15.8756 15.2723 30.3897 7.8645 -7.1250 0.0000 -0.0000 -18.6735 60.2984 -7.1142 0.0000 0.0000 0.0000 -33.9517 52.8289 -46.6984 -11.6739 19.3137 -1.9931 0.0000 0.0000 19.8126 -40.0088 9.6646 -8.0209 7.1250 -0.0000 -0.0000 -9.1054 -17.5397 -6.0148
-1.7007 16.8009 -2.1348 24.8309 24.5627 86.8287 0.0000 0.0000 0.0000 -7.6631 -16.3912 -53.1945 3.3053 11.1737 32.8678 0.3100 -5.5584 14.0297 0.9465 -6.1959 -17.3539 0.0000 0.0000 0.0000 -19.6360 3.6803 -105.5505 -6.3935 -14.7991 46.5413 0.6694 -15.9879 -13.5913 -1.6048 -7.9891 22.6810 5.0063 3.3114 13.8782 13.0039 4.8783 12.6808 10.9348 2.2210 5.1867 0.4363 -9.3743 -13.0355 -5.6204 -12.8489 -2.1723 -2.4561 -6.6985 1.0769 0.0000 0.0000 0.0000 -89.6665 -17.5163 62.7303 87.3812 -59.9741 -57.7322 -0.0000 0.0000 -16.1800 15.4216 30.6226 7.9985 -7.1250 0.0000 -0.0000 -18.6902 60.5538 -7.2349 0.0000 0.0000 0.0000 -34.9323 52.9517 -48.1271 -11.3831 18.8731 -1.8980 0.0000 0.0000 20.6215 -39.0241 9.5922 -7.6915 7.1250 -0.0000 -0.0000 -8.4431 -17.7862 -5.5209
-1.7043 16.7904 -2.1199 24.8513 24.7071 87.0631 0.0000 0.0000 0.0000 -7.3785 -16.6435 -53.2988 3.3166 11.1907 32.9259 0.3703 -4.9401 14.3805 0.6825 -5.2821 -14.7148 0.0000 0.0000 0.0000 -19.5197 3.6458 -105.7809 -6.4159 -14.8197 46.6291 0.6573 -15.9330 -13.7036 -1.6977 -8.2057 23.3406 5.2491 3.2702 13.8951 13.0430 4.8448 12.7170 10.8480 2.2161 5.2432 0.5059 -9.3475 -12.8247 -5.4894 -12.8529 -2.5336 -2.3943 -6.6942 0.9261 -0.0000 -0.0000 0.0000 -89.6595 -17.5834 62.6971 88.3415 -59.9896 -58.5638 -0.0000 0.0000 -16.3923 15.5246 30.7799 8.0907 -7.1250 0.0000 -0.0000 -18.7003 60.7268 -7.3163 -0.0000 -0.0000 0.0000 -35.8395 53.1448 -49.6933 -11.1065 18.4513 -1.8095 0.0000 0.0000 21.6014 -38.1666 9.3930 -7.3097 7.1250 -0.0000 -0.0000 -7.8829 -18.1629 -5.0813
-1.7081 16.7764 -2.1047 24.6424 24.4950 87.0700 0.0000 0.0000 0.0000 -7.4792 -16.7613 -53.2089 3.3256 11.2043 32.9720 0.4137 -4.2590 14.4671 0.5149 -4.5992 -12.7687 0.0000 0.0000 0.0000 -19.6923 3.8245 -105.9856 -6.4376 -14.8394 46.7139 0.6363 -15.7679 -13.7111 -1.7210 -8.2590 23.5035 5.0740 3.3368 14.0960 13.0007 4.9240 12.8140 10.8844 2.2423 5.2192 0.6939 -9.3047 -12.6565 -5.5310 -12.8562 -2.9451 -2.4074 -6.6951 0.7486 -0.0000 -0.0000 0.0000 -89.6574 -17.6656 62.6362 89.1698 -59.9974 -59.2811 -0.0000 0.0000 -16.3827 15.5207 30.8256 8.0993 -7.1250 0.0000 -0.0000 -18.7398 60.7690 -7.3512 -0.0000 -0.0000 0.0000 -36.6091 53.3021 -51.0197 -10.8935 18.1249 -1.7427 0.0000 0.0000 22.2286 -37.5895 9.2892 -7.0833 7.1250 -0.0000 -0.0000 -7.4987 -18.3740 -4.7939
-1.7171 16.7660 -2.0866 24.3868 24.3219 87.0673 0.0000 0.0000 0.0000 -7.4478 -16.9260 -53.1485 3.3310 11.2126 33.0002 0.4024 -4.3192 14.3555 0.6254 -5.0607 -14.0817 0.0000 0.0000 0.0000 -19.8118 4.0629 -106.2337 -6.4620 -14.8615 46.8087 0.6050 -15.5159 -13.7135 -1.6974 -8.2052 23.3391 4.8351 3.4517 14.2746 12.9997 5.0565 12.9233 11.0022 2.2881 5.2043 0.7778 -9.2771 -12.5342 -5.4837 -12.8638 -3.3576 -2.3794 -6.6967 0.5911 -0.0000 -0.0000 0.0000 -89.7095 -17.8363 62.6227 89.8408 -59.9999 -59.8621 -0.0000 0.0000 -16.3511 15.4698 30.5472 8.0068 -7.1250 0.0000 -0.0000 -18.5811 60.4940 -7.1644 -0.0000 -0.0000 0.0000 -37.2747 53.2818 -51.8627 -10.7538 17.9099 -1.6994 0.0000 0.0000 22.2007 -37.0494 9.3623 -7.0012 7.1250 -0.0000 -0.0000 -7.1140 -18.3595 -4.5463
-1.7173 16.7605 -2.0710 24.2778 24.4094 87.1990 0.0000 0.0000 0.0000 -7.1281 -17.2706 -53.2083 3.3339 11.2169 33.0148 0.4091 -4.2329 14.3855 0.5543 -4.7692 -13.2516 0.0000 0.0000 0.0000 -19.6697 4.1198 -106.4729 -6.4861 -14.8834 46.9028 0.5700 -15.2589 -13.7898 -1.7192 -8.2549 23.4912 4.9798 3.4592 14.2375 13.0275 5.0660 12.9888 10.9608 2.2963 5.3090 0.7127 -9.2625 -12.4095 -5.2838 -12.8551 -3.6471 -2.2844 -6.6858 0.4935 0.0000 0.0000 0.0000 -89.7051 -17.9628 62.6037 90.7510 -59.9979 -60.6504 -0.0000 0.0000 -16.5326 15.4085 30.3367 7.9248 -7.1250 0.0000 -0.0000 -18.4879 60.2806 -7.0327 0.0000 0.0000 0.0000 -37.8033 53.3112 -52.6747 -10.6348 17.7263 -1.6630 0.0000 0.0000 22.1900 -36.4712 9.2620 -6.7847 7.1250 -0.0000 -0.0000 -6.7257 -18.5608 -4.2645
